<svg width="616" height="191" viewBox="0 0 616 191" fill="none" xmlns="http://www.w3.org/2000/svg">
<path d="M55.3231 1.17843C34.9231 5.17843 11.1898 25.5784 3.18979 46.1118C-0.676878 55.9784 -1.07688 75.4451 2.25646 86.3784C9.72312 110.378 27.7231 127.712 59.7231 141.578L69.7231 145.845L63.1898 152.645C55.9898 160.245 55.3231 163.045 59.4565 168.245C62.9231 172.645 65.5898 172.645 75.3231 167.712C79.7231 165.445 83.5898 163.712 84.1231 163.712C84.5231 163.712 81.4565 166.778 77.4565 170.512C72.2565 175.178 69.9898 178.378 69.9898 180.512C69.9898 184.112 75.3231 190.378 78.3898 190.378C82.7898 190.378 105.323 180.112 107.59 176.912C112.256 170.645 107.456 167.045 98.7898 170.378C93.9898 172.112 94.5231 170.378 99.9898 165.045C105.723 159.445 106.256 153.712 101.456 149.178C98.9231 146.778 97.0565 146.245 93.3231 146.645C89.4565 147.045 88.7898 146.778 89.4565 145.178C90.9231 141.845 90.3898 136.778 88.3898 135.578C87.4565 134.912 83.3231 133.445 79.3231 132.245C61.8565 127.045 42.1231 114.245 33.3231 102.245C24.2565 89.8451 21.4565 81.5784 21.4565 65.7118C21.3231 53.5784 21.7231 51.7118 25.1898 44.5118C30.2565 34.2451 43.1898 21.3118 53.3231 16.3784C60.3898 12.9118 62.5231 12.5118 74.5231 12.5118C88.6565 12.5118 97.5898 15.0451 101.856 20.2451C107.323 26.7784 99.8565 55.1784 85.4565 83.1784C80.2565 93.4451 79.5898 92.1118 82.5231 76.6451C83.5898 71.1784 84.9231 62.5118 85.3231 57.4451C86.2565 48.9118 85.9898 47.7118 83.4565 45.1784C79.9898 41.7118 78.6565 41.7118 61.9898 45.3118C41.3231 49.5784 33.9898 56.2451 33.9898 70.2451C33.9898 82.9118 39.7231 99.7118 43.9898 99.7118C48.3898 99.7118 49.3231 93.5784 46.6565 82.7784C42.1231 63.1784 43.1898 59.8451 56.6565 53.0451C64.1231 49.3118 75.0565 45.7118 76.1231 46.7784C76.3898 47.0451 74.5231 55.0451 71.8565 64.5118C66.1231 85.3118 64.5231 104.245 67.7231 111.845C70.1231 117.712 75.3231 119.578 80.1231 116.378C89.4565 110.245 106.39 80.5118 115.456 54.3784C119.323 43.4451 119.99 39.8451 119.99 28.7784C119.99 17.0451 119.723 15.7118 116.79 12.5118C108.256 3.4451 75.1898 -2.68824 55.3231 1.17843Z" fill="#43637D"/>
<path d="M394.523 14.9116C387.59 17.9783 376.923 32.3783 379.723 35.1783C379.99 35.5783 384.123 33.445 388.656 30.5116C393.19 27.5783 399.59 24.245 403.056 23.045C416.39 18.245 415.99 18.645 413.323 15.7116C410.39 12.5116 400.923 12.1116 394.523 14.9116Z" fill="#43637D"/>
<path d="M140.656 49.4451C136.656 51.3117 122.79 77.5784 113.19 101.445C107.056 116.378 106.79 117.445 108.79 120.778C110.39 123.845 111.59 124.378 116.656 124.378C122.123 124.378 122.923 123.978 127.323 118.112C129.856 114.645 136.123 104.645 141.19 95.8451C149.856 80.7784 160.656 66.3784 163.456 66.3784C164.123 66.3784 162.923 69.7117 160.923 73.8451C157.456 81.1784 157.323 81.3117 159.856 83.1784C163.723 85.9784 173.056 85.5784 177.056 82.3784C183.056 77.7117 191.456 63.7117 191.056 59.3117C190.123 50.1117 176.523 47.0451 165.456 53.5784C162.256 55.4451 156.79 60.1117 153.323 63.9784L147.056 71.0451L151.19 64.7784C156.123 57.4451 156.523 52.6451 152.39 49.8451C148.79 47.3117 145.19 47.1784 140.656 49.4451Z" fill="#43637D"/>
<path d="M372.523 49.5785C363.856 52.6451 358.123 57.0451 349.99 67.0451C338.656 80.9118 313.99 102.912 311.99 100.912C311.723 100.645 316.523 92.1118 322.79 81.9785C328.923 71.9785 333.99 62.2451 333.99 60.6451C333.99 57.0451 329.59 52.5118 324.256 50.5118C318.39 48.2451 316.79 48.6451 311.59 53.8451C308.923 56.5118 306.523 57.9785 306.256 57.1785C303.456 48.9118 291.99 46.6451 279.99 52.2451C274.256 54.9118 267.456 60.6451 250.256 77.3118C216.256 110.512 203.323 117.578 203.323 103.045C203.323 99.1785 203.59 98.9118 207.323 99.4451C212.79 100.245 222.656 95.1785 230.256 87.5785C240.656 77.1785 245.056 65.5785 241.99 56.5118C240.123 50.6451 237.323 49.0451 229.59 49.0451C215.19 49.0451 194.39 66.3785 184.79 86.2451C180.656 95.0451 179.99 97.7118 179.99 105.978C179.99 114.645 180.39 115.845 183.856 119.578C188.39 124.245 197.723 126.778 204.79 125.178C212.523 123.445 221.59 117.312 233.856 105.712L245.323 94.7785V105.712C245.323 115.578 245.723 117.178 248.523 120.245C257.323 129.578 266.656 124.912 282.39 103.712C283.723 101.845 282.656 104.512 279.99 109.712C273.99 121.045 263.59 135.445 257.19 141.045C251.456 145.978 251.323 151.178 256.79 154.245C262.79 157.578 267.056 155.312 282.79 139.312C291.723 130.378 301.323 122.112 306.79 118.778C311.856 115.712 319.456 110.112 323.59 106.378L331.19 99.7118L330.39 106.645C329.856 112.645 330.256 114.512 332.923 118.378C334.656 120.912 337.59 123.845 339.323 124.778C343.99 127.178 354.923 126.112 362.39 122.512C370.256 118.645 381.99 108.112 386.79 100.378C388.923 97.1785 392.656 93.3118 395.323 91.7118C397.856 90.2451 401.323 87.9785 402.923 86.9118C405.99 84.7785 405.99 84.7785 402.523 92.5118C394.523 110.378 392.523 117.045 394.123 120.112C396.256 124.112 397.856 125.045 402.79 125.045C408.123 125.045 412.39 120.512 425.19 100.778C434.656 86.3785 444.656 73.0451 444.656 74.9118C444.656 75.4451 443.056 78.9118 441.19 82.7785C432.123 100.512 430.123 115.312 435.723 121.845C440.256 127.045 449.323 127.045 457.056 121.578C467.856 113.845 505.99 67.0451 503.99 63.7118C502.256 61.0451 499.99 62.7785 484.923 77.8451C476.523 86.2451 466.923 95.0451 463.723 97.1785C458.39 100.912 457.99 100.912 457.99 98.5118C457.99 95.4451 466.256 79.1785 473.323 68.5118C477.856 61.8451 478.123 60.7785 476.79 57.3118C474.656 52.2451 470.923 50.2451 463.456 50.1118C453.723 50.1118 447.19 54.3785 435.323 68.3785C432.923 71.3118 431.856 72.2451 433.056 70.3785C443.056 55.3118 443.456 53.5785 437.323 49.5785C434.523 47.7118 432.79 47.5785 429.056 48.5118C425.056 49.4451 423.323 51.1785 419.19 57.9785C414.656 65.4451 405.99 74.6451 398.923 79.5785C396.39 81.3118 396.256 81.3118 397.19 78.9118C397.856 77.5785 398.523 72.5118 398.923 67.7118C399.59 60.1118 399.19 58.5118 396.523 55.1785C391.056 48.2451 381.99 46.1118 372.523 49.5785ZM387.19 60.5118C388.79 62.5118 389.99 65.5785 389.99 67.5785C389.99 71.5785 383.323 86.2451 380.39 88.6451C377.723 90.9118 362.923 92.3785 359.99 90.6451C357.856 89.4451 358.256 88.5118 364.79 81.7118C368.79 77.5785 374.256 72.9118 377.056 71.5785C381.323 69.3118 381.856 68.6451 380.656 66.3785C379.856 65.0451 377.456 62.7785 375.323 61.4451C371.856 59.4451 371.59 58.9118 373.59 58.1118C379.056 55.9785 384.39 57.0451 387.19 60.5118ZM301.456 64.2451C302.656 67.3118 298.923 72.9118 288.523 84.2451C275.723 97.9785 265.456 106.245 264.923 103.178C263.99 98.9118 280.523 74.2451 289.456 66.5118C294.39 62.1118 300.256 61.0451 301.456 64.2451ZM231.323 64.7785C231.323 66.3785 222.123 79.9785 218.256 84.1118C214.39 88.2451 207.456 92.3785 206.39 91.1785C205.056 89.8451 213.19 77.7118 220.123 70.6451C226.39 64.5118 231.323 61.8451 231.323 64.7785ZM368.39 103.045C369.723 104.112 359.856 109.312 356.256 109.578C352.39 109.712 351.99 109.312 351.59 105.445L351.19 101.312L359.59 101.978C364.256 102.378 368.123 102.912 368.39 103.045Z" fill="#43637D"/>
<path d="M318.656 148.512C312.39 151.712 308.923 155.578 306.523 161.845C300.656 177.312 311.456 192.112 326.656 189.712C331.056 189.178 332.656 188.245 332.656 186.645C332.656 184.778 331.59 184.512 326.256 184.778C318.39 185.312 313.456 181.978 311.19 174.378C309.856 169.978 309.99 168.112 311.856 163.045C315.056 154.912 319.456 151.712 327.323 151.712C333.19 151.712 335.323 150.378 335.323 146.912C335.323 145.445 322.123 146.645 318.656 148.512Z" fill="#43637D"/>
<path d="M348.523 149.445C346.123 151.045 342.656 154.778 340.923 157.712C338.39 162.112 337.99 164.512 338.256 172.245C338.79 180.778 339.056 181.578 343.723 185.845C355.856 196.912 373.723 186.512 375.056 167.578C375.723 158.245 373.856 152.645 368.656 149.045C363.456 145.312 354.39 145.445 348.523 149.445ZM365.456 153.445C373.456 160.378 369.99 180.245 360.123 184.378C347.59 189.578 339.056 175.178 345.856 160.245C350.39 150.378 358.523 147.578 365.456 153.445Z" fill="#43637D"/>
<path d="M388.123 147.978C387.723 148.912 385.99 157.445 383.99 167.045C381.99 176.512 380.123 185.445 379.857 186.645C379.323 188.378 379.857 189.045 381.857 189.045C383.457 189.045 384.657 188.912 384.79 188.645C384.79 188.512 386.257 180.512 387.857 171.045C389.59 161.445 391.323 154.645 391.857 155.712C392.257 156.778 393.857 163.445 395.323 170.378C396.79 177.312 398.257 184.378 398.657 185.978C400.123 192.112 403.057 188.645 410.657 171.978C414.923 162.645 418.657 154.778 419.057 154.378C419.323 153.978 419.19 161.712 418.657 171.312L417.723 189.045H421.19H424.657V167.712V146.378H421.057C417.857 146.378 416.923 147.312 414.39 153.445C412.923 157.178 409.59 164.912 407.057 170.512L402.523 180.645L399.99 169.178C398.657 162.912 397.19 155.312 396.79 152.378C396.123 147.845 395.457 147.045 392.257 146.645C390.123 146.378 388.39 146.912 388.123 147.978Z" fill="#43637D"/>
<path d="M435.456 163.845C434.656 173.445 433.59 183.045 433.056 185.178L432.39 189.045H445.19C457.056 189.045 457.99 188.912 457.99 186.378C457.99 183.845 457.456 183.712 448.523 184.512L439.19 185.445L439.59 177.578L439.99 169.712L447.723 169.312C453.323 169.045 455.323 168.378 455.323 167.045C455.323 165.578 453.456 165.045 447.99 165.045C439.99 165.045 439.723 164.645 441.456 155.845C442.256 151.712 442.39 151.712 450.656 151.712C458.523 151.712 460.656 150.645 460.656 146.912C460.656 146.645 455.323 146.378 448.923 146.378H437.19L435.456 163.845Z" fill="#43637D"/>
<path d="M467.59 163.712C466.656 173.312 465.59 183.045 465.056 185.178C464.39 188.645 464.656 189.045 467.856 189.045C471.19 189.045 471.323 188.778 471.323 180.512C471.323 171.045 472.39 169.845 479.323 171.178C484.39 172.245 486.123 174.378 487.99 182.112C489.19 187.045 490.256 188.512 492.656 188.778C495.323 189.178 495.456 188.912 494.656 184.778C493.19 178.112 489.056 169.045 487.323 169.045C486.39 169.045 487.59 167.312 489.856 165.178C492.923 162.245 493.99 160.112 493.99 156.778C493.99 149.578 490.256 147.178 478.79 146.645L469.19 146.112L467.59 163.712ZM486.79 153.178C487.856 153.978 488.656 155.978 488.656 157.578C488.656 162.645 485.59 165.312 478.656 165.978L472.256 166.778L473.056 159.845C473.456 156.112 474.256 152.378 474.79 151.578C475.856 149.845 484.123 150.912 486.79 153.178Z" fill="#43637D"/>
<path d="M514.656 148.512C508.39 151.712 504.923 155.578 502.523 161.845C496.656 177.312 507.456 192.112 522.656 189.712C527.056 189.178 528.656 188.245 528.656 186.645C528.656 184.778 527.59 184.512 521.99 184.778C516.123 185.312 514.923 184.912 511.323 181.312C508.923 178.912 507.323 175.712 507.19 173.445C506.656 158.912 511.99 151.712 523.456 151.712C529.19 151.712 531.323 150.378 531.323 146.912C531.323 145.445 518.123 146.645 514.656 148.512Z" fill="#43637D"/>
<path d="M537.99 152.778C537.99 158.778 536.123 177.178 534.656 185.312C534.123 188.512 534.523 189.045 537.056 189.045C539.99 189.045 540.256 188.378 541.856 171.578C542.656 161.978 543.723 152.378 544.256 150.245C544.923 146.778 544.656 146.378 541.456 146.378C538.256 146.378 537.99 146.778 537.99 152.778Z" fill="#43637D"/>
<path d="M556.39 167.712C546.523 188.112 546.256 189.045 549.19 189.045C551.856 189.045 552.79 187.845 554.79 182.378L557.19 175.712H566.123C575.856 175.712 575.456 175.312 577.323 184.645C577.99 188.245 578.79 189.045 581.59 189.045C583.723 189.045 584.656 188.378 584.39 187.312C583.99 186.512 581.456 176.912 578.523 166.112C573.59 147.312 573.19 146.378 569.99 146.512C567.056 146.512 565.59 148.778 556.39 167.712ZM573.99 170.645C573.99 171.312 571.056 171.712 567.323 171.712C563.723 171.712 560.656 171.178 560.656 170.512C560.656 169.978 562.523 165.312 564.923 160.245L569.056 151.045L571.456 160.378C572.79 165.445 573.99 170.112 573.99 170.645Z" fill="#43637D"/>
<path d="M593.99 152.778C593.99 158.778 592.123 177.178 590.657 185.312L590.123 189.045H602.657C614.257 189.045 615.323 188.778 615.323 186.512C615.323 184.112 614.657 183.978 605.99 184.645L596.657 185.445V180.912C596.657 178.378 597.59 170.112 598.657 162.378C599.723 154.645 600.657 147.978 600.657 147.312C600.657 146.778 599.19 146.378 597.323 146.378C594.257 146.378 593.99 146.778 593.99 152.778Z" fill="#43637D"/>
</svg>
