<svg width="91" height="25" viewBox="0 0 91 25" fill="none" xmlns="http://www.w3.org/2000/svg">
<path d="M4.58637 6.03442C5.94182 5.00924 7.65746 4.49666 9.73587 4.49666C11.0619 4.49666 12.1397 4.63767 12.9721 4.91974L11.7556 7.72675C11.2006 7.58573 10.5495 7.51521 9.79712 7.51521C8.51123 7.51521 7.48675 7.81624 6.72624 8.42105C5.96316 9.02313 5.44568 10.0103 5.16807 11.3772L3.38841 20.0369H0L1.89979 10.805C2.33468 8.65429 3.23113 7.065 4.58637 6.03713M16.1926 19.7358C15.016 19.1719 14.1089 18.3745 13.4766 17.3383C12.8441 16.3024 12.5266 15.1009 12.5266 13.7339C12.5266 12.991 12.6066 12.2858 12.7641 11.6213C13.1004 10.1324 13.754 8.84142 14.7226 7.74575C15.6909 6.65005 16.8782 5.81473 18.2844 5.24248C19.6877 4.67023 21.1925 4.38274 22.7961 4.38274C24.6558 4.38274 26.1205 4.76515 27.1877 5.52995C28.2551 6.29477 28.7913 7.30909 28.7913 8.57835C28.7913 8.93905 28.7512 9.2835 28.6739 9.60351C27.9614 12.7821 24.3302 14.3714 17.78 14.3714C16.8703 14.3714 16.2274 14.3606 15.8512 14.3415C16.0298 15.3883 16.5287 16.2074 17.3505 16.8015C18.1722 17.3954 19.2955 17.691 20.7203 17.691C22.3612 17.691 24.0154 17.2678 25.6775 16.4245L26.5687 19.0795C25.6376 19.5623 24.6398 19.9339 23.5699 20.197C22.5025 20.4573 21.4435 20.5902 20.3949 20.5902C18.7727 20.5902 17.3718 20.308 16.1952 19.7467M18.0495 11.7813C20.2854 11.7813 22.0356 11.5454 23.3029 11.0735C24.5703 10.6016 25.2828 9.96152 25.4402 9.15874C25.4588 9.07737 25.4695 8.97703 25.4695 8.85769C25.4695 8.37494 25.216 7.98712 24.7117 7.69692C24.2075 7.40672 23.4711 7.26028 22.5 7.26028C20.8778 7.26028 19.4771 7.64809 18.3005 8.42105C17.1238 9.1967 16.3554 10.3059 16.0005 11.7542C16.4167 11.7732 17.0997 11.784 18.0495 11.784M33.7511 6.49004C35.3733 5.09331 37.4118 4.39359 39.8664 4.39359C41.4299 4.39359 42.8093 4.70006 44.0072 5.313C45.2052 5.92592 46.1283 6.77753 46.7821 7.86236C47.4358 8.94719 47.7612 10.1649 47.7612 11.5128C47.7612 12.0769 47.7025 12.66 47.5826 13.2622C47.3049 14.6291 46.7367 15.8685 45.875 16.9722C45.0131 18.0788 43.9566 18.9439 42.7 19.5677C41.4432 20.1915 40.0932 20.5035 38.6499 20.5035C37.3638 20.5035 36.2217 20.2783 35.2214 19.8254C34.2208 19.3725 33.415 18.7053 32.8013 17.8184L31.3178 25H27.9348L30.6055 12.058C31.0805 9.74454 32.1289 7.88947 33.7511 6.49275M33.7806 13.3869C33.7806 14.6345 34.186 15.646 34.9971 16.4191C35.8082 17.1947 36.9368 17.5797 38.3804 17.5797C39.8237 17.5797 41.027 17.1485 42.1049 16.2835C43.1829 15.4182 43.8713 14.2927 44.1673 12.9041C44.2661 12.4024 44.3168 11.9793 44.3168 11.6376C44.3168 10.371 43.9059 9.34858 43.0841 8.57564C42.2623 7.80269 41.1312 7.41487 39.685 7.41487C38.3189 7.41487 37.0889 7.8488 35.9898 8.71123C34.8904 9.5764 34.2048 10.7019 33.9274 12.0905C33.8286 12.5922 33.7778 13.0262 33.7778 13.3869M57.3449 7.29282C56.3151 7.29282 55.52 7.43385 54.9543 7.7159C54.3914 7.99797 54.1086 8.39122 54.1086 8.89296C54.1086 9.27535 54.3461 9.61167 54.8209 9.90456C55.2959 10.1975 56.1576 10.5121 57.4036 10.8538C59.322 11.3555 60.6881 11.9712 61.4992 12.6953C62.3103 13.4194 62.7159 14.2955 62.7159 15.3206C62.7159 15.6623 62.6651 16.0638 62.5663 16.5275C62.2889 17.7533 61.5418 18.7406 60.3253 19.4836C59.1086 20.2267 57.5291 20.6011 55.5921 20.6011C54.2072 20.6011 52.8947 20.4356 51.6594 20.102C50.4213 19.7712 49.3887 19.3237 48.5563 18.7595L50.0984 16.0746C51.8194 17.1594 53.719 17.7045 55.7974 17.7045C56.8861 17.7045 57.7318 17.5147 58.3348 17.1323C58.9378 16.7499 59.2394 16.2889 59.2394 15.7436C59.2394 15.3206 58.9831 14.9382 58.4682 14.5964C57.9533 14.2547 57.0327 13.9131 55.7067 13.5713C53.9059 13.1103 52.6092 12.5271 51.8194 11.822C51.0269 11.1196 50.6321 10.2734 50.6321 9.28893C50.6321 8.92821 50.6722 8.58649 50.7495 8.26375C50.987 7.11654 51.7234 6.18628 52.9613 5.47301C54.1966 4.75973 55.7547 4.40174 57.6358 4.40174C58.7644 4.40174 59.8369 4.53733 60.8562 4.80855C61.8754 5.07976 62.7611 5.48657 63.5136 6.03171L62.0301 8.62716C60.6053 7.74303 59.0418 7.30095 57.3396 7.30095M68.6791 19.7007C67.4516 19.0769 66.5125 18.2225 65.8587 17.1351C65.2051 16.0501 64.8797 14.8324 64.8797 13.4845C64.8797 12.9014 64.9383 12.3075 65.0583 11.7054C65.3359 10.3385 65.9229 9.10178 66.8247 7.99526C67.7237 6.88872 68.8391 6.01813 70.1651 5.38623C71.4911 4.75159 72.8946 4.43699 74.3806 4.43699C76.0429 4.43699 77.4863 4.74888 78.7137 5.37265C79.9409 5.99644 80.88 6.85076 81.5338 7.9383C82.1874 9.02313 82.5129 10.2409 82.5129 11.5888C82.5129 12.1719 82.4542 12.7658 82.3343 13.3678C82.0566 14.7348 81.467 15.9742 80.5678 17.078C79.666 18.1845 78.5534 19.0552 77.2274 19.687C75.9014 20.3217 74.498 20.6362 73.0119 20.6362C71.3496 20.6362 69.9063 20.3245 68.6791 19.7007ZM68.2922 13.3652C68.2922 14.6317 68.7217 15.6568 69.5834 16.4434C70.4453 17.2273 71.5871 17.6205 73.0119 17.6205C74.4367 17.6205 75.7813 17.1947 76.87 16.3377C77.9585 15.4833 78.6495 14.3415 78.9484 12.9123C79.047 12.4512 79.0978 12.0471 79.0978 11.7054C79.0978 10.4388 78.6682 9.41367 77.8064 8.62716C76.9447 7.84067 75.8026 7.45012 74.378 7.45012C72.9532 7.45012 71.6085 7.87863 70.52 8.73294C69.4313 9.58724 68.7403 10.729 68.4416 12.1583C68.3428 12.6221 68.2922 13.0236 68.2922 13.3652ZM87.6169 0H91L86.8459 20.0343H83.4627L87.6169 0Z" fill="#001E37"/>
</svg>
